<svg width="621" height="128" viewBox="0 0 621 128" fill="none" xmlns="http://www.w3.org/2000/svg">
<path d="M1 51.9391C17.5926 45.4973 53.94 33.3164 66.5894 36.1274C82.4011 39.6411 106.997 52.5248 110.511 54.2816C114.025 56.0385 141.549 79.4633 155.018 47.8398C168.487 16.2164 197.768 6.26082 214.751 19.7301C231.734 33.1993 241.69 -11.8934 269.799 6.26082C297.909 24.415 305.522 44.3261 323.676 41.9837C341.831 39.6412 351.786 71.8503 377.553 69.5078C403.321 67.1653 403.321 72.4359 414.447 75.9496C425.574 79.4633 442.557 56.0385 464.811 68.3365C487.064 80.6346 501.119 56.0385 516.931 86.4907C532.743 116.943 538.599 115.186 556.167 107.573C573.736 99.96 582.52 115.772 594.233 101.131C603.603 89.4188 614.144 72.0455 618.243 64.8228" stroke="#C8EE44" stroke-width="2"/>
<path d="M2.17114 70.6784C11.1506 69.3119 31.2179 62.3626 39.6508 45.4967C50.192 24.4144 54.2913 12.702 82.401 19.1438C110.511 25.5856 106.411 3.91771 129.251 34.3699C152.09 64.8222 146.819 47.8392 169.658 51.3529C192.498 54.8666 198.939 68.3359 212.994 51.3529C227.049 34.3699 242.275 61.8941 268.042 54.8666C293.81 47.8392 293.224 84.7332 327.19 82.9764C361.156 81.2195 343.002 130.412 384.581 126.312C426.16 122.213 402.149 91.7607 441.971 110.5C481.794 129.24 488.821 49.0104 519.273 61.3084C549.725 73.6065 568.465 104.644 620 81.2195" stroke="#29A073" stroke-width="2"/>
</svg>
