<svg width="20" height="20" viewBox="0 0 20 20" fill="none" xmlns="http://www.w3.org/2000/svg">
<path d="M16.7001 5.68471L11.9001 2.32637C10.5918 1.40971 8.58342 1.45971 7.32511 2.43471L3.15011 5.69304C2.31678 6.34304 1.65845 7.67637 1.65845 8.72633V14.4763C1.65845 16.6013 3.38345 18.3347 5.50845 18.3347H14.4918C16.6168 18.3347 18.3418 16.6097 18.3418 14.4847V8.83466C18.3418 7.70971 17.6168 6.32637 16.7001 5.68471ZM10.6251 15.0013C10.6251 15.343 10.3418 15.6263 10.0001 15.6263C9.65842 15.6263 9.37509 15.343 9.37509 15.0013V12.5013C9.37509 12.1597 9.65842 11.8763 10.0001 11.8763C10.3418 11.8763 10.6251 12.1597 10.6251 12.5013V15.0013Z" fill="#1B212D"/>
</svg>
