<svg width="31" height="30" viewBox="0 0 31 30" fill="none" xmlns="http://www.w3.org/2000/svg">
<path fill-rule="evenodd" clip-rule="evenodd" d="M8.75 0C4.33172 0 0.75 3.58172 0.75 8V22C0.75 22.1899 0.756616 22.3783 0.769632 22.5648C0.762994 22.5744 0.756451 22.5836 0.75 22.5927C0.75 22.9378 0.792605 23.2176 0.877821 23.4321C1.55282 27.167 4.82057 30 8.75 30H22.75C27.1683 30 30.75 26.4183 30.75 22L30.75 19.9851L30.75 8C30.75 3.58172 27.1683 0 22.75 0H8.75ZM30.75 19.9851C30.75 20.2986 30.6663 20.5978 30.499 20.8828C30.3595 21.1393 30.1363 21.3388 29.8295 21.4813C29.6063 21.6238 29.2019 21.8517 28.6161 22.1652L26.7751 23.1057C26.1056 23.4192 25.4641 23.7326 24.8504 24.0461C24.2646 24.3596 23.8462 24.5733 23.5952 24.6873C23.0373 24.9438 22.605 25.1148 22.2981 25.2003C22.0192 25.2573 21.6287 25.2858 21.1266 25.2858C20.5966 25.2858 20.1084 25.1861 19.6621 24.9866C19.2437 24.7871 18.895 24.5021 18.6161 24.1316C18.3372 23.7611 18.1419 23.3479 18.0303 22.8919C17.9188 22.4075 17.9327 21.8945 18.0722 21.353C18.0722 20.4411 18.2256 19.6004 18.5324 18.8309C18.8672 18.033 19.2298 17.2778 19.6203 16.5653C20.0387 15.8243 20.4013 15.0976 20.7082 14.3852C21.0429 13.6442 21.2103 12.8605 21.2103 12.0341C20.5966 12.0341 19.9411 12.2336 19.2437 12.6325C18.5464 13.0315 17.8351 13.5587 17.1098 14.2142C16.4125 14.8696 15.7151 15.6106 15.0178 16.4371C14.3483 17.235 13.7068 18.0472 13.0931 18.8737C12.5073 19.6716 11.9913 20.4411 11.545 21.182C11.1266 21.923 10.8058 22.5357 10.5826 23.0202C10.5268 23.0487 10.3874 23.0772 10.1642 23.1057H9.74582C9.29951 23.3337 9.02057 23.3337 8.909 23.1057C8.82531 22.8492 8.82531 22.4645 8.909 21.9515C9.02057 21.4385 9.18794 20.8686 9.41109 20.2416C9.63424 19.5861 9.84344 18.9734 10.0387 18.4034C10.2619 17.805 10.4292 17.3205 10.5408 16.95C10.6524 16.5511 10.6663 16.3516 10.5826 16.3516C10.6663 16.2376 10.7639 16.0523 10.8755 15.7958C10.9871 15.5394 11.0987 15.2686 11.2103 14.9836C11.3218 14.6987 11.4195 14.4422 11.5031 14.2142C11.5868 13.9577 11.6287 13.7582 11.6287 13.6157C11.6287 13.3592 11.531 13.2025 11.3358 13.1455C11.1684 13.06 11.001 13.0173 10.8337 13.0173C10.3316 12.7323 9.78766 12.9033 9.20188 13.5302C8.644 14.1287 8.03033 14.9979 7.36088 16.1378C6.71932 17.2493 6.00802 18.5317 5.22699 19.9851C4.47385 21.41 3.63703 22.7922 2.71653 24.1316C2.07497 24.1316 1.58682 24.0461 1.25209 23.8751C1.08625 23.7904 0.961496 23.6427 0.877821 23.4321C0.826467 23.148 0.790121 22.8586 0.769632 22.5648C0.992597 22.2452 1.32078 21.6703 1.75418 20.8401C2.20049 19.9566 2.70258 18.9877 3.26046 17.9332C3.81834 16.8788 4.40411 15.8101 5.01778 14.7272C5.65934 13.6442 6.25907 12.7323 6.81695 11.9913C7.40272 11.2219 7.91876 10.7089 8.36506 10.4524C8.83926 10.1674 9.21583 10.2957 9.49477 10.8371C9.96897 10.5237 10.485 10.2529 11.0429 10.0249C11.6287 9.79694 12.2144 9.68295 12.8002 9.68295C13.1907 9.68295 13.5115 9.81119 13.7626 10.0677C14.0415 10.2957 14.2507 10.5949 14.3902 10.9654C14.5575 11.3074 14.6831 11.6778 14.7667 12.0768C14.8504 12.4473 14.8923 12.775 14.8923 13.06C15.1991 12.8605 15.7012 12.5185 16.3985 12.0341C17.1238 11.5211 17.8909 11.0081 18.6998 10.4952C19.5366 9.98218 20.3455 9.54046 21.1266 9.16998C21.9355 8.771 22.591 8.57151 23.0931 8.57151C23.5394 8.57151 23.916 8.7425 24.2228 9.08448C24.5575 9.39797 24.7249 9.79694 24.7249 10.2814C23.7207 12.7893 22.9257 14.7984 22.34 16.3088C21.7821 17.8192 21.4055 19.0019 21.2103 19.8569C21.0429 20.6833 21.0429 21.2818 21.2103 21.6523C21.4055 21.9942 21.7402 22.265 22.2144 22.4645C22.9676 22.4645 23.6928 22.3362 24.3902 22.0797C25.0875 21.8232 25.7709 21.5383 26.4404 21.2248C27.1377 20.9113 27.8351 20.6263 28.5324 20.3698C29.2298 20.1133 29.969 19.9851 30.75 19.9851Z" fill="white"/>
</svg>
