<svg width="20" height="20" viewBox="0 0 20 20" fill="none" xmlns="http://www.w3.org/2000/svg">
<path d="M14.1667 2.02475H5.83333C3.33333 2.02475 1.66667 3.69142 1.66667 6.19142V11.1914C1.66667 13.6914 3.33333 15.3581 5.83333 15.3581V17.1331C5.83333 17.7998 6.575 18.1998 7.125 17.8248L10.8333 15.3581H14.1667C16.6667 15.3581 18.3333 13.6914 18.3333 11.1914V6.19142C18.3333 3.69142 16.6667 2.02475 14.1667 2.02475ZM10 12.1664C9.65 12.1664 9.375 11.8831 9.375 11.5414C9.375 11.1998 9.65 10.9164 10 10.9164C10.35 10.9164 10.625 11.1998 10.625 11.5414C10.625 11.8831 10.35 12.1664 10 12.1664ZM11.05 8.70809C10.725 8.92476 10.625 9.06643 10.625 9.29976V9.47476C10.625 9.81643 10.3417 10.0998 10 10.0998C9.65833 10.0998 9.375 9.81643 9.375 9.47476V9.29976C9.375 8.33308 10.0833 7.85808 10.35 7.67475C10.6583 7.46642 10.7583 7.32475 10.7583 7.10808C10.7583 6.69142 10.4167 6.34975 10 6.34975C9.58333 6.34975 9.24167 6.69142 9.24167 7.10808C9.24167 7.44975 8.95834 7.73308 8.61667 7.73308C8.275 7.73308 7.99167 7.44975 7.99167 7.10808C7.99167 5.99975 8.89167 5.09975 10 5.09975C11.1083 5.09975 12.0083 5.99975 12.0083 7.10808C12.0083 8.05808 11.3083 8.53309 11.05 8.70809Z" fill="#929EAE"/>
</svg>
