<svg width="20" height="20" viewBox="0 0 20 20" fill="none" xmlns="http://www.w3.org/2000/svg">
<path d="M14.1667 2.02539H5.83341C3.33341 2.02539 1.66675 3.69206 1.66675 6.19206V11.1921C1.66675 13.6921 3.33341 15.3587 5.83341 15.3587V17.1337C5.83341 17.8004 6.57508 18.2004 7.12508 17.8254L10.8334 15.3587H14.1667C16.6667 15.3587 18.3334 13.6921 18.3334 11.1921V6.19206C18.3334 3.69206 16.6667 2.02539 14.1667 2.02539ZM10.0001 12.1671C9.65008 12.1671 9.37508 11.8837 9.37508 11.5421C9.37508 11.2004 9.65008 10.9171 10.0001 10.9171C10.3501 10.9171 10.6251 11.2004 10.6251 11.5421C10.6251 11.8837 10.3501 12.1671 10.0001 12.1671ZM11.0501 8.70873C10.7251 8.9254 10.6251 9.06707 10.6251 9.3004V9.4754C10.6251 9.81707 10.3417 10.1004 10.0001 10.1004C9.65842 10.1004 9.37508 9.81707 9.37508 9.4754V9.3004C9.37508 8.33373 10.0834 7.85872 10.3501 7.67539C10.6584 7.46706 10.7584 7.32539 10.7584 7.10872C10.7584 6.69206 10.4167 6.35039 10.0001 6.35039C9.58342 6.35039 9.24175 6.69206 9.24175 7.10872C9.24175 7.45039 8.95842 7.73372 8.61675 7.73372C8.27508 7.73372 7.99175 7.45039 7.99175 7.10872C7.99175 6.00039 8.89175 5.10039 10.0001 5.10039C11.1084 5.10039 12.0084 6.00039 12.0084 7.10872C12.0084 8.05872 11.3084 8.53373 11.0501 8.70873Z" fill="#929EAE"/>
</svg>
