<svg width="42" height="43" viewBox="0 0 42 43" fill="none" xmlns="http://www.w3.org/2000/svg">
<circle cx="21" cy="21.5" r="21" fill="#292642"/>
<path d="M29.3336 20.641V22.3577C29.3336 22.816 28.9669 23.191 28.5003 23.2077H26.8669C25.9669 23.2077 25.1419 22.5493 25.0669 21.6493C25.0169 21.1243 25.2169 20.6327 25.5669 20.291C25.8753 19.9743 26.3003 19.791 26.7669 19.791H28.5003C28.9669 19.8077 29.3336 20.1827 29.3336 20.641Z" fill="white"/>
<path d="M28.0584 24.4577H26.8667C25.2834 24.4577 23.9501 23.266 23.8167 21.7493C23.7417 20.8827 24.0584 20.016 24.6917 19.3993C25.2251 18.8493 25.9667 18.541 26.7667 18.541H28.0584C28.3001 18.541 28.5001 18.341 28.4751 18.0993C28.2917 16.0743 26.9501 14.691 24.9584 14.4577C24.7584 14.4243 24.5501 14.416 24.3334 14.416H16.8334C16.6001 14.416 16.3751 14.4327 16.1584 14.466C14.0334 14.7327 12.6667 16.316 12.6667 18.5827V24.416C12.6667 26.716 14.5334 28.5827 16.8334 28.5827H24.3334C26.6667 28.5827 28.2751 27.1244 28.4751 24.8994C28.5001 24.6577 28.3001 24.4577 28.0584 24.4577ZM21.8334 19.6243H16.8334C16.4917 19.6243 16.2084 19.341 16.2084 18.9993C16.2084 18.6577 16.4917 18.3743 16.8334 18.3743H21.8334C22.1751 18.3743 22.4584 18.6577 22.4584 18.9993C22.4584 19.341 22.1751 19.6243 21.8334 19.6243Z" fill="white"/>
</svg>
