<svg width="43" height="43" viewBox="0 0 43 43" fill="none" xmlns="http://www.w3.org/2000/svg">
<circle cx="21.6667" cy="21.5" r="21" fill="#292642"/>
<path d="M30.0002 20.641V22.3577C30.0002 22.816 29.6335 23.191 29.1668 23.2077H27.5335C26.6335 23.2077 25.8085 22.5493 25.7335 21.6493C25.6835 21.1243 25.8835 20.6327 26.2335 20.291C26.5418 19.9743 26.9668 19.791 27.4335 19.791H29.1668C29.6335 19.8077 30.0002 20.1827 30.0002 20.641Z" fill="white"/>
<path d="M28.725 24.4583H27.5334C25.95 24.4583 24.6167 23.2667 24.4834 21.75C24.4084 20.8833 24.725 20.0167 25.3584 19.4C25.8917 18.85 26.6334 18.5417 27.4334 18.5417H28.725C28.9667 18.5417 29.1667 18.3417 29.1417 18.1C28.9584 16.075 27.6167 14.6917 25.625 14.4583C25.425 14.425 25.2167 14.4167 25 14.4167H17.5C17.2667 14.4167 17.0417 14.4333 16.825 14.4667C14.7 14.7333 13.3334 16.3167 13.3334 18.5833V24.4167C13.3334 26.7167 15.2 28.5833 17.5 28.5833H25C27.3334 28.5833 28.9417 27.125 29.1417 24.9C29.1667 24.6583 28.9667 24.4583 28.725 24.4583ZM22.5 19.625H17.5C17.1584 19.625 16.875 19.3417 16.875 19C16.875 18.6583 17.1584 18.375 17.5 18.375H22.5C22.8417 18.375 23.125 18.6583 23.125 19C23.125 19.3417 22.8417 19.625 22.5 19.625Z" fill="white"/>
</svg>
