<svg width="42" height="43" viewBox="0 0 42 43" fill="none" xmlns="http://www.w3.org/2000/svg">
<circle cx="21" cy="21.5" r="21" fill="#292642"/>
<path d="M15.1666 24.0006C13.3249 24.0006 11.8333 25.4923 11.8333 27.334C11.8333 27.959 12.0083 28.5506 12.3166 29.0506C12.8916 30.0173 13.9499 30.6673 15.1666 30.6673C16.3833 30.6673 17.4416 30.0173 18.0166 29.0506C18.3249 28.5506 18.4999 27.959 18.4999 27.334C18.4999 25.4923 17.0083 24.0006 15.1666 24.0006ZM16.4083 27.9423H15.7916V28.5923C15.7916 28.934 15.5083 29.2173 15.1666 29.2173C14.8249 29.2173 14.5416 28.934 14.5416 28.5923V27.9423H13.9249C13.5833 27.9423 13.2999 27.659 13.2999 27.3173C13.2999 26.9756 13.5833 26.6923 13.9249 26.6923H14.5416V26.1006C14.5416 25.759 14.8249 25.4756 15.1666 25.4756C15.5083 25.4756 15.7916 25.759 15.7916 26.1006V26.6923H16.4083C16.7499 26.6923 17.0333 26.9756 17.0333 27.3173C17.0333 27.659 16.7583 27.9423 16.4083 27.9423ZM28.9166 21.9173H26.8333C25.9166 21.9173 25.1666 22.6673 25.1666 23.584C25.1666 24.5006 25.9166 25.2506 26.8333 25.2506H28.9166C29.1499 25.2506 29.3333 25.0673 29.3333 24.834V22.334C29.3333 22.1006 29.1499 21.9173 28.9166 21.9173ZM24.7743 16.0008C25.0243 16.2424 24.8159 16.6174 24.4659 16.6174L17.5659 16.6091C17.1659 16.6091 16.9659 16.1258 17.2493 15.8424L18.7076 14.3758C19.9409 13.1508 21.9326 13.1508 23.1659 14.3758L24.7409 15.9674C24.7493 15.9758 24.7659 15.9924 24.7743 16.0008Z" fill="white"/>
<path d="M29.2245 27.0507C28.7162 28.7673 27.2495 29.834 25.2495 29.834H19.8328C19.5078 29.834 19.2995 29.4757 19.4328 29.1757C19.6828 28.5923 19.8412 27.934 19.8412 27.334C19.8412 24.809 17.7828 22.7507 15.2578 22.7507C14.6245 22.7507 14.0078 22.884 13.4411 23.134C13.1328 23.2673 12.7578 23.059 12.7578 22.7257V21.5007C12.7578 19.234 14.1245 17.6507 16.2495 17.384C16.4578 17.3507 16.6828 17.334 16.9161 17.334H25.2495C25.4662 17.334 25.6745 17.3423 25.8745 17.3757C27.5578 17.5673 28.7745 18.5923 29.2245 20.1173C29.3078 20.3923 29.1078 20.6673 28.8245 20.6673H26.9162C25.1078 20.6673 23.6745 22.3173 24.0662 24.1923C24.3412 25.559 25.6078 26.5007 26.9995 26.5007H28.8245C29.1162 26.5007 29.3078 26.784 29.2245 27.0507Z" fill="white"/>
</svg>
