<svg width="43" height="43" viewBox="0 0 43 43" fill="none" xmlns="http://www.w3.org/2000/svg">
<circle cx="21.3334" cy="21.5" r="21" fill="#292642"/>
<path d="M15.5 24C13.6584 24 12.1667 25.4917 12.1667 27.3333C12.1667 27.9583 12.3417 28.55 12.65 29.05C13.225 30.0167 14.2834 30.6667 15.5 30.6667C16.7167 30.6667 17.775 30.0167 18.35 29.05C18.6584 28.55 18.8334 27.9583 18.8334 27.3333C18.8334 25.4917 17.3417 24 15.5 24ZM16.7417 27.9417H16.125V28.5917C16.125 28.9333 15.8417 29.2167 15.5 29.2167C15.1584 29.2167 14.875 28.9333 14.875 28.5917V27.9417H14.2584C13.9167 27.9417 13.6334 27.6583 13.6334 27.3167C13.6334 26.975 13.9167 26.6917 14.2584 26.6917H14.875V26.1C14.875 25.7583 15.1584 25.475 15.5 25.475C15.8417 25.475 16.125 25.7583 16.125 26.1V26.6917H16.7417C17.0834 26.6917 17.3667 26.975 17.3667 27.3167C17.3667 27.6583 17.0917 27.9417 16.7417 27.9417ZM29.25 21.9167H27.1667C26.25 21.9167 25.5 22.6667 25.5 23.5833C25.5 24.5 26.25 25.25 27.1667 25.25H29.25C29.4834 25.25 29.6667 25.0667 29.6667 24.8333V22.3333C29.6667 22.1 29.4834 21.9167 29.25 21.9167ZM25.1077 16.0001C25.3577 16.2418 25.1494 16.6168 24.7994 16.6168L17.8994 16.6085C17.4994 16.6085 17.2994 16.1251 17.5827 15.8418L19.041 14.3751C20.2744 13.1501 22.266 13.1501 23.4994 14.3751L25.0744 15.9668C25.0827 15.9751 25.0994 15.9918 25.1077 16.0001Z" fill="white"/>
<path d="M29.5579 27.05C29.0495 28.7667 27.5829 29.8333 25.5829 29.8333H20.1662C19.8412 29.8333 19.6329 29.475 19.7662 29.175C20.0162 28.5917 20.1745 27.9333 20.1745 27.3333C20.1745 24.8083 18.1162 22.75 15.5912 22.75C14.9579 22.75 14.3412 22.8833 13.7745 23.1333C13.4662 23.2667 13.0912 23.0583 13.0912 22.725V21.5C13.0912 19.2333 14.4579 17.65 16.5829 17.3833C16.7912 17.35 17.0162 17.3333 17.2495 17.3333H25.5829C25.7995 17.3333 26.0079 17.3417 26.2079 17.375C27.8912 17.5667 29.1079 18.5917 29.5579 20.1167C29.6412 20.3917 29.4412 20.6667 29.1579 20.6667H27.2495C25.4412 20.6667 24.0079 22.3167 24.3995 24.1917C24.6745 25.5583 25.9412 26.5 27.3329 26.5H29.1579C29.4495 26.5 29.6412 26.7833 29.5579 27.05Z" fill="white"/>
</svg>
