<svg width="25" height="24" viewBox="0 0 25 24" fill="none" xmlns="http://www.w3.org/2000/svg">
<path d="M22.0555 10.0415L21.25 10.0415L21.25 10L12.25 10L12.25 14L17.9015 14C17.077 16.3285 14.8615 18 12.25 18C8.9365 18 6.25 15.3135 6.25 12C6.25 8.6865 8.9365 6 12.25 6C13.7795 6 15.171 6.577 16.2305 7.5195L19.059 4.691C17.273 3.0265 14.884 2 12.25 2C6.7275 2 2.25 6.4775 2.25 12C2.25 17.5225 6.7275 22 12.25 22C17.7725 22 22.25 17.5225 22.25 12C22.25 11.3295 22.181 10.675 22.0555 10.0415Z" fill="#FBC02D"/>
<path d="M3.40308 7.3455L6.68858 9.755C7.57758 7.554 9.73058 6 12.2501 6C13.7796 6 15.1711 6.577 16.2306 7.5195L19.0591 4.691C17.2731 3.0265 14.8841 2 12.2501 2C8.40908 2 5.07808 4.1685 3.40308 7.3455Z" fill="#E53935"/>
<path d="M12.2499 22C14.8329 22 17.1799 21.0115 18.9544 19.404L15.8594 16.785C14.8554 17.5455 13.6074 18 12.2499 18C9.64891 18 7.44041 16.3415 6.60841 14.027L3.34741 16.5395C5.00241 19.778 8.36341 22 12.2499 22Z" fill="#4CAF50"/>
<path d="M22.0555 10.0415L22.0475 10L21.25 10L12.25 10L12.25 14L17.9015 14C17.5055 15.1185 16.786 16.083 15.858 16.7855C15.8585 16.785 15.859 16.785 15.8595 16.7845L18.9545 19.4035C18.7355 19.6025 22.25 17 22.25 12C22.25 11.3295 22.181 10.675 22.0555 10.0415Z" fill="#1565C0"/>
</svg>
