<svg width="20" height="20" viewBox="0 0 20 20" fill="none" xmlns="http://www.w3.org/2000/svg">
<path d="M13.1501 1.66602H6.85008C3.70008 1.66602 2.91675 2.50768 2.91675 5.86602V15.2493C2.91675 17.466 4.13341 17.991 5.60842 16.4077L5.61675 16.3993C6.30008 15.6743 7.34175 15.7327 7.93342 16.5243L8.77508 17.6493C9.45008 18.541 10.5417 18.541 11.2167 17.6493L12.0584 16.5243C12.6584 15.7243 13.7001 15.666 14.3834 16.3993C15.8667 17.9827 17.0751 17.4577 17.0751 15.241V5.86602C17.0834 2.50768 16.3001 1.66602 13.1501 1.66602ZM12.2917 8.95768H7.70842C7.36675 8.95768 7.08342 8.67435 7.08342 8.33268C7.08342 7.99102 7.36675 7.70768 7.70842 7.70768H12.2917C12.6334 7.70768 12.9167 7.99102 12.9167 8.33268C12.9167 8.67435 12.6334 8.95768 12.2917 8.95768Z" fill="#929EAE"/>
</svg>
