<svg width="20" height="20" viewBox="0 0 20 20" fill="none" xmlns="http://www.w3.org/2000/svg">
<path d="M13.15 1.66667H6.85C3.7 1.66667 2.91667 2.50834 2.91667 5.86667V15.25C2.91667 17.4667 4.13333 17.9917 5.60833 16.4083L5.61667 16.4C6.3 15.675 7.34167 15.7333 7.93334 16.525L8.775 17.65C9.45 18.5417 10.5417 18.5417 11.2167 17.65L12.0583 16.525C12.6583 15.725 13.7 15.6667 14.3833 16.4C15.8667 17.9833 17.075 17.4583 17.075 15.2417V5.86667C17.0833 2.50834 16.3 1.66667 13.15 1.66667ZM12.2917 8.95834H7.70834C7.36667 8.95834 7.08334 8.67501 7.08334 8.33334C7.08334 7.99167 7.36667 7.70834 7.70834 7.70834H12.2917C12.6333 7.70834 12.9167 7.99167 12.9167 8.33334C12.9167 8.67501 12.6333 8.95834 12.2917 8.95834Z" fill="#929EAE"/>
</svg>
