<svg width="20" height="20" viewBox="0 0 20 20" fill="none" xmlns="http://www.w3.org/2000/svg">
<path d="M12.3749 3.29232V6.45898H11.1249V3.29232C11.1249 3.06732 10.9249 2.95898 10.7916 2.95898C10.7499 2.95898 10.7083 2.96732 10.6666 2.98398L4.05825 5.47565C3.61659 5.64232 3.33325 6.05898 3.33325 6.53398V7.09232C2.57492 7.65898 2.08325 8.56733 2.08325 9.59233V6.53398C2.08325 5.54232 2.69159 4.65898 3.61659 4.30898L10.2333 1.80898C10.4166 1.74232 10.6083 1.70898 10.7916 1.70898C11.6249 1.70898 12.3749 2.38398 12.3749 3.29232ZM17.9172 12.0833V12.9167C17.9172 13.1417 17.7422 13.325 17.5088 13.3333H16.2922C15.8505 13.3333 15.4505 13.0083 15.4172 12.575C15.3922 12.3167 15.4922 12.075 15.6588 11.9083C15.8088 11.75 16.0172 11.6667 16.2422 11.6667H17.5005C17.7422 11.675 17.9172 11.8583 17.9172 12.0833Z" fill="#929EAE"/>
<path d="M16.2333 10.7923H17.0833C17.5416 10.7923 17.9166 10.4173 17.9166 9.95898V9.59232C17.9166 7.86732 16.5083 6.45898 14.7833 6.45898H5.21659C4.50825 6.45898 3.85825 6.69232 3.33325 7.09232C2.57492 7.65898 2.08325 8.56732 2.08325 9.59232V15.2007C2.08325 16.9257 3.49159 18.334 5.21659 18.334H14.7833C16.5083 18.334 17.9166 16.9257 17.9166 15.2007V15.0423C17.9166 14.584 17.5416 14.209 17.0833 14.209H16.3583C15.5583 14.209 14.7916 13.7173 14.5833 12.9423C14.4083 12.309 14.6166 11.7007 15.0333 11.2923C15.3416 10.9757 15.7666 10.7923 16.2333 10.7923ZM11.6666 10.6257H5.83325C5.49159 10.6257 5.20825 10.3423 5.20825 10.0007C5.20825 9.65898 5.49159 9.37565 5.83325 9.37565H11.6666C12.0083 9.37565 12.2916 9.65898 12.2916 10.0007C12.2916 10.3423 12.0083 10.6257 11.6666 10.6257Z" fill="#929EAE"/>
</svg>
