<svg width="20" height="20" viewBox="0 0 20 20" fill="none" xmlns="http://www.w3.org/2000/svg">
<path d="M12.375 3.29232V6.45898H11.125V3.29232C11.125 3.06732 10.925 2.95898 10.7917 2.95898C10.75 2.95898 10.7083 2.96732 10.6667 2.98398L4.05833 5.47565C3.61667 5.64232 3.33333 6.05898 3.33333 6.53398V7.09232C2.575 7.65898 2.08333 8.56733 2.08333 9.59233V6.53398C2.08333 5.54232 2.69167 4.65898 3.61667 4.30898L10.2333 1.80898C10.4167 1.74232 10.6083 1.70898 10.7917 1.70898C11.625 1.70898 12.375 2.38398 12.375 3.29232ZM17.9172 12.0833V12.9167C17.9172 13.1417 17.7422 13.325 17.5089 13.3333H16.2922C15.8506 13.3333 15.4506 13.0083 15.4172 12.575C15.3922 12.3167 15.4922 12.075 15.6589 11.9083C15.8089 11.75 16.0172 11.6667 16.2422 11.6667H17.5006C17.7422 11.675 17.9172 11.8583 17.9172 12.0833Z" fill="#929EAE"/>
<path d="M16.2333 10.7917H17.0833C17.5417 10.7917 17.9167 10.4167 17.9167 9.95833V9.59166C17.9167 7.86666 16.5083 6.45833 14.7833 6.45833H5.21667C4.50833 6.45833 3.85833 6.69166 3.33333 7.09166C2.575 7.65833 2.08333 8.56666 2.08333 9.59166V15.2C2.08333 16.925 3.49167 18.3333 5.21667 18.3333H14.7833C16.5083 18.3333 17.9167 16.925 17.9167 15.2V15.0417C17.9167 14.5833 17.5417 14.2083 17.0833 14.2083H16.3583C15.5583 14.2083 14.7917 13.7167 14.5833 12.9417C14.4083 12.3083 14.6167 11.7 15.0333 11.2917C15.3417 10.975 15.7667 10.7917 16.2333 10.7917ZM11.6667 10.625H5.83333C5.49167 10.625 5.20833 10.3417 5.20833 10C5.20833 9.65833 5.49167 9.375 5.83333 9.375H11.6667C12.0083 9.375 12.2917 9.65833 12.2917 10C12.2917 10.3417 12.0083 10.625 11.6667 10.625Z" fill="#929EAE"/>
</svg>
