<svg width="20" height="20" viewBox="0 0 20 20" fill="none" xmlns="http://www.w3.org/2000/svg">
<path d="M16.7503 7.68385C15.242 7.68385 14.6253 6.61718 15.3753 5.30885C15.8087 4.55052 15.5503 3.58385 14.792 3.15052L13.3503 2.32552C12.692 1.93385 11.842 2.16718 11.4503 2.82552L11.3587 2.98385C10.6087 4.29218 9.37533 4.29218 8.61699 2.98385L8.52533 2.82552C8.15033 2.16718 7.30033 1.93385 6.64199 2.32552L5.20033 3.15052C4.44199 3.58385 4.18366 4.55885 4.61699 5.31718C5.37533 6.61718 4.75866 7.68385 3.25033 7.68385C2.38366 7.68385 1.66699 8.39218 1.66699 9.26718V10.7338C1.66699 11.6005 2.37533 12.3172 3.25033 12.3172C4.75866 12.3172 5.37533 13.3838 4.61699 14.6922C4.18366 15.4505 4.44199 16.4172 5.20033 16.8505L6.64199 17.6755C7.30033 18.0672 8.15033 17.8338 8.54199 17.1755L8.63366 17.0172C9.38366 15.7088 10.617 15.7088 11.3753 17.0172L11.467 17.1755C11.8587 17.8338 12.7087 18.0672 13.367 17.6755L14.8087 16.8505C15.567 16.4172 15.8253 15.4422 15.392 14.6922C14.6337 13.3838 15.2503 12.3172 16.7587 12.3172C17.6253 12.3172 18.342 11.6088 18.342 10.7338V9.26718C18.3337 8.40052 17.6253 7.68385 16.7503 7.68385ZM10.0003 12.7088C8.50866 12.7088 7.29199 11.4922 7.29199 10.0005C7.29199 8.50885 8.50866 7.29218 10.0003 7.29218C11.492 7.29218 12.7087 8.50885 12.7087 10.0005C12.7087 11.4922 11.492 12.7088 10.0003 12.7088Z" fill="#929EAE"/>
</svg>
