<svg width="20" height="20" viewBox="0 0 20 20" fill="none" xmlns="http://www.w3.org/2000/svg">
<path d="M13.4917 1.66602H6.50841C3.47508 1.66602 1.66675 3.47435 1.66675 6.50768V13.4827C1.66675 16.5244 3.47508 18.3327 6.50841 18.3327H13.4834C16.5167 18.3327 18.3251 16.5244 18.3251 13.491V6.50768C18.3334 3.47435 16.5251 1.66602 13.4917 1.66602ZM14.3834 8.29935L12.4584 10.7827C12.2167 11.091 11.8751 11.291 11.4834 11.3327C11.0917 11.3827 10.7084 11.2743 10.4001 11.0327L8.87508 9.83268C8.81675 9.78268 8.75008 9.78268 8.71675 9.79102C8.68341 9.79102 8.62508 9.80768 8.57508 9.87435L6.59175 12.4493C6.46675 12.6077 6.28341 12.691 6.10008 12.691C5.96675 12.691 5.83341 12.6493 5.71675 12.5577C5.44175 12.3493 5.39175 11.9577 5.60008 11.6827L7.58341 9.10768C7.82508 8.79935 8.16675 8.59935 8.55841 8.54935C8.94175 8.49935 9.33341 8.60768 9.64175 8.84935L11.1667 10.0493C11.2251 10.0993 11.2834 10.0993 11.3251 10.091C11.3584 10.091 11.4167 10.0743 11.4667 10.0077L13.3917 7.52435C13.6001 7.24935 14.0001 7.19935 14.2667 7.41602C14.5417 7.64102 14.5917 8.03268 14.3834 8.29935Z" fill="#929EAE"/>
</svg>
